<?xml version="1.0" encoding="UTF-8" standalone="no"?>
<svg width="38px" height="38px" viewBox="0 0 38 38" version="1.1" xmlns="http://www.w3.org/2000/svg" xmlns:xlink="http://www.w3.org/1999/xlink">
    <!-- Generator: Sketch 47.1 (45422) - http://www.bohemiancoding.com/sketch -->
    <title>Artboard 2 Copy 4</title>
    <desc>Created with Sketch.</desc>
    <defs></defs>
    <g id="Page-1" stroke="none" stroke-width="1" fill="none" fill-rule="evenodd">
        <g id="Artboard-2-Copy-4">
            <g id="Group-47-Copy" transform="translate(8.000000, 7.000000)">
                <path d="M7.4809152,14.520768 C8.3088192,14.520768 8.9798592,15.191808 8.9798592,16.019712 L8.9798592,22.449792 C8.9798592,23.277504 8.3088192,23.948544 7.4809152,23.948544 C6.6532032,23.948544 5.9821632,23.277504 5.9821632,22.449792 L5.9821632,16.019712 C5.9821632,15.192 6.6532032,14.52096 7.4809152,14.52096 L7.4809152,14.520768 Z" id="Fill-29" fill="#A4C639"></path>
                <path d="M4.058976,6.7901184 C4.053984,6.8469504 4.04976,6.9043584 4.04976,6.9625344 L4.04976,16.7046144 C4.04976,17.7523584 4.879008,18.5963904 5.908512,18.5963904 L15.81552,18.5963904 C16.845024,18.5963904 17.674464,17.7521664 17.674464,16.7046144 L17.674464,6.9625344 C17.674464,6.9043584 17.672352,6.8467584 17.667552,6.7901184 L4.058976,6.7901184 Z" id="Fill-31" fill="#A4C639"></path>
                <path d="M4.102752,6.1501824 C4.144416,3.1578624 6.756192,0.7042944 10.108704,0.3809664 L11.615136,0.3809664 C14.968032,0.7044864 17.579616,3.1580544 17.62128,6.1501824 L4.102752,6.1501824 Z M20.082912,7.6571904 C20.910624,7.6571904 21.581664,8.3282304 21.581664,9.1561344 L21.581664,15.5860224 C21.581664,16.4139264 20.910624,17.0849664 20.082912,17.0849664 C19.2552,17.0849664 18.583968,16.4139264 18.583968,15.5862144 L18.583968,9.1561344 C18.583968,8.3282304 19.2552,7.6571904 20.082912,7.6571904 Z M1.641312,7.6571904 C2.469024,7.6571904 3.140256,8.3282304 3.140256,9.1561344 L3.140256,15.5860224 C3.140256,16.4139264 2.469024,17.0849664 1.641312,17.0849664 C0.8136,17.0849664 0.142368,16.4139264 0.142368,15.5862144 L0.142368,9.1561344 C0.142368,8.3282304 0.813408,7.6571904 1.641312,7.6571904 Z M14.243232,14.5208064 C15.071136,14.5208064 15.742176,15.1918464 15.742176,16.0197504 L15.742176,22.4496384 C15.742176,23.2775424 15.071136,23.9485824 14.243232,23.9485824 C13.41552,23.9485824 12.74448,23.2775424 12.74448,22.4496384 L12.74448,16.0197504 C12.74448,15.1920384 13.41552,14.5208064 14.243232,14.5208064 Z" id="Fill-33" fill="#A4C639"></path>
                <path d="M17.1002304,0.0921408 L15.5189184,2.8308288 M4.6240704,0.0921408 L6.2051904,2.8308288" id="Stroke-35" stroke="#A4C639" stroke-width="3" stroke-linecap="round" stroke-linejoin="round"></path>
                <path d="M14.6370624,3.4684992 C14.6384064,3.8868672 14.2922304,4.2268992 13.8636864,4.2280512 C13.4355264,4.2290112 13.0874304,3.8908992 13.0860864,3.4727232 L13.0860864,3.4684992 C13.0849344,3.0501312 13.4311104,2.7100992 13.8594624,2.7089472 C14.2876224,2.7077952 14.6357184,3.0457152 14.6370624,3.4642752 L14.6370624,3.4684992 Z M8.8484544,3.4684992 C8.8497984,3.8868672 8.5036224,4.2268992 8.0750784,4.2280512 C7.6469184,4.2290112 7.2988224,3.8908992 7.2974784,3.4727232 L7.2974784,3.4684992 C7.2963264,3.0501312 7.6425024,2.7100992 8.0708544,2.7089472 C8.4990144,2.7077952 8.8473024,3.0457152 8.8484544,3.4642752 L8.8484544,3.4684992 Z" id="Fill-37" fill="#FFFFFF"></path>
            </g>
        </g>
    </g>
</svg>