<?xml version="1.0" encoding="UTF-8" standalone="no"?>
<svg width="22px" height="22px" viewBox="0 0 22 22" version="1.1" xmlns="http://www.w3.org/2000/svg" xmlns:xlink="http://www.w3.org/1999/xlink">
    <!-- Generator: Sketch 47.1 (45422) - http://www.bohemiancoding.com/sketch -->
    <title>Artboard</title>
    <desc>Created with Sketch.</desc>
    <defs></defs>
    <g id="Page-1" stroke="none" stroke-width="1" fill="none" fill-rule="evenodd" opacity="0.502915112">
        <g id="Artboard" stroke="#FFFFFF">
            <g id="Group-43-Copy" transform="translate(1.000000, 1.000000)">
                <g id="Group-42">
                    <path d="M0.583488159,11.7816632 C0.378240128,12.0872735 0.219147836,12.431257 0.11860349,12.8064936 C-0.373279441,14.6422257 0.722367354,16.530803 2.5657991,17.024749 C3.02515304,17.1478326 3.4875939,17.1727053 3.9306714,17.1122665 C2.25182946,15.8058998 1.0393521,13.9326865 0.583488159,11.7816632 Z" id="Combined-Shape"></path>
                    <path d="M10.3348412,19.1732468 C10.7121948,19.4963992 11.1644685,19.7416706 11.6742842,19.8782753 C13.5298799,20.3754807 15.4450975,19.2448213 15.9520425,17.3528769 C16.0352888,17.0421972 16.0753838,16.7303082 16.0760379,16.4237832 C14.5800176,17.9569267 12.571673,18.9698803 10.3348412,19.1732468 Z" id="Combined-Shape"></path>
                    <path d="M2.22197038,4.29851993 C2.10186,3.75967109 2.10662238,3.18239679 2.26020397,2.60922249 C2.75953511,0.745693296 4.64288575,-0.368815899 6.46678536,0.119896528 C7.01213573,0.266022719 7.49042312,0.53893553 7.87964797,0.899566927 C5.59784992,1.2806358 3.60082167,2.5271706 2.22197038,4.29851993 Z" id="Combined-Shape"></path>
                    <path d="M15.2493398,2.79379017 C15.689066,2.73263266 16.1479427,2.75663486 16.6036098,2.8787305 C18.4296819,3.36802504 19.5127124,5.24739569 19.0226262,7.07642233 C18.9225271,7.44999718 18.7645441,7.79257785 18.5609391,8.09707172 C18.1087199,5.95748986 16.9094306,4.09415209 15.2493396,2.79379003 Z" id="Combined-Shape"></path>
                </g>
                <path d="M9.64285714,17.1071429 C5.71769053,17.1071429 2.53571429,13.9251666 2.53571429,10 C2.53571429,6.07483339 5.71769053,2.89285714 9.64285714,2.89285714 C13.5680238,2.89285714 16.75,6.07483339 16.75,10 C16.75,13.9251666 13.5680238,17.1071429 9.64285714,17.1071429 Z M6.16521918,13.3195991 C7.10700673,13.5719503 8.07504747,13.0130518 8.32739869,12.0712642 C8.5797499,11.1294766 8.02085132,10.1614359 7.07906377,9.90908469 C6.13727621,9.65673348 5.16923547,10.2156321 4.91688426,11.1574196 C4.66453305,12.0992072 5.22343163,13.0672479 6.16521918,13.3195991 Z M10.8002768,14.6828513 C11.7420643,14.9352026 12.710105,14.376304 12.9624563,13.4345164 C13.2148075,12.4927289 12.6559089,11.5246881 11.7141213,11.2723369 C10.7723338,11.0199857 9.80429305,11.5788843 9.55194184,12.5206718 C9.29959062,13.4624594 9.8584892,14.4305001 10.8002768,14.6828513 Z M7.25582096,8.68454154 C8.19760852,8.93689276 9.16564925,8.37799418 9.41800047,7.43620662 C9.67035168,6.49441907 9.1114531,5.52637833 8.16966555,5.27402712 C7.227878,5.0216759 6.25983726,5.58057448 6.00748604,6.52236204 C5.75513483,7.46414959 6.31403341,8.43219033 7.25582096,8.68454154 Z M12.163529,9.77514333 C13.1053165,10.0274945 14.0733573,9.46859596 14.3257085,8.52680841 C14.5780597,7.58502085 14.0191611,6.61698011 13.0773736,6.3646289 C12.135586,6.11227769 11.1675453,6.67117627 10.9151941,7.61296382 C10.6628429,8.55475137 11.2217414,9.52279211 12.163529,9.77514333 Z M9.64032044,10.458742 C9.89507765,10.458742 10.1015992,10.2522205 10.1015992,9.99746329 C10.1015992,9.74270608 9.89507765,9.53618455 9.64032044,9.53618455 C9.38556322,9.53618455 9.17904169,9.74270608 9.17904169,9.99746329 C9.17904169,10.2522205 9.38556322,10.458742 9.64032044,10.458742 Z" id="Combined-Shape"></path>
            </g>
        </g>
    </g>
</svg>