<?xml version="1.0" encoding="UTF-8" standalone="no"?>
<svg width="38px" height="38px" viewBox="0 0 38 38" version="1.1" xmlns="http://www.w3.org/2000/svg" xmlns:xlink="http://www.w3.org/1999/xlink">
    <!-- Generator: Sketch 47.1 (45422) - http://www.bohemiancoding.com/sketch -->
    <title>charkhune</title>
    <desc>Created with Sketch.</desc>
    <defs></defs>
    <g id="Page-1" stroke="none" stroke-width="1" fill="none" fill-rule="evenodd">
        <g id="charkhune">
            <g id="Group-48-Copy" transform="translate(8.000000, 7.000000)">
                <path d="M2.21198298,10.855966 L10.855966,10.855966 L10.855966,2.21198298 L2.21198298,2.21198298 L2.21198298,10.855966 Z M0.0777191489,12.9903319 L12.9902298,12.9903319 L12.9902298,0.0777191489 L0.0777191489,0.0777191489 L0.0777191489,12.9903319 Z" id="Fill-39" fill="#FCD835"></path>
                <path d="M7.60115745,16.4585872 L16.4585872,16.4585872 L16.4585872,7.60125957 L7.60115745,7.60125957 L7.60115745,16.4585872 Z M5.46689362,18.5928511 L18.5928511,18.5928511 L18.5928511,5.46689362 L5.46689362,5.46689362 L5.46689362,18.5928511 Z" id="Fill-41" fill="#42A147"></path>
                <path d="M15.5513872,19.6066723 L19.4998468,19.6066723 L19.4998468,15.6582128 L15.5513872,15.6582128 L15.5513872,19.6066723 Z M13.4171234,21.7409362 L21.6342128,21.7409362 L21.6342128,13.5238468 L13.4171234,13.5238468 L13.4171234,21.7409362 Z" id="Fill-42" fill="#00ADF0"></path>
                <path d="M4.13290213,21.7943489 L9.94886809,21.7943489 L9.94886809,15.978383 L4.13290213,15.978383 L4.13290213,21.7943489 Z M1.99853617,23.9286128 L12.0831319,23.9286128 L12.0831319,13.844017 L1.99853617,13.844017 L1.99853617,23.9286128 Z" id="Fill-43" fill="#D42E2E"></path>
                <polygon id="Fill-44" fill="#FCD835" points="10.855966 8.25926809 12.9902298 8.25926809 12.9902298 4.48861277 10.855966 4.48861277"></polygon>
                <polygon id="Fill-45" fill="#42A147" points="9.14849362 18.5928511 12.9902298 18.5928511 12.9902298 16.4585872 9.14849362 16.4585872"></polygon>
                <polygon id="Fill-46" fill="#42A147" points="16.4585872 16.2273702 18.5928511 16.2273702 18.5928511 12.9903319 16.4585872 12.9903319"></polygon>
            </g>
        </g>
    </g>
</svg>