<?xml version="1.0" encoding="UTF-8" standalone="no"?>
<svg width="48px" height="48px" viewBox="0 0 48 48" version="1.1" xmlns="http://www.w3.org/2000/svg" xmlns:xlink="http://www.w3.org/1999/xlink">
    <!-- Generator: Sketch 43 (38999) - http://www.bohemiancoding.com/sketch -->
    <title>vod</title>
    <desc>Created with Sketch.</desc>
    <defs></defs>
    <g id="Page-1" stroke="none" stroke-width="1" fill="none" fill-rule="evenodd">
        <g id="vod">
            <g id="Group-35">
                <path d="M3.50584615,44.5716923 L37.4289231,44.5716923 L37.4289231,26.0473846 L3.50584615,26.0473846 L3.50584615,44.5716923 Z M38.8135385,47.3409231 L2.12123077,47.3409231 C1.35692308,47.3409231 0.736615385,46.7206154 0.736615385,45.9563077 L0.736615385,24.6618462 C0.736615385,23.8975385 1.35692308,23.2772308 2.12123077,23.2772308 L38.8135385,23.2772308 C39.5787692,23.2772308 40.1981538,23.8975385 40.1981538,24.6618462 L40.1981538,45.9563077 C40.1981538,46.7206154 39.5787692,47.3409231 38.8135385,47.3409231 L38.8135385,47.3409231 Z" id="Fill-9" fill="#FFFFFF"></path>
                <path d="M8.30215385,39.564 L17.2772308,39.564 L17.2772308,31.0541538 L8.30215385,31.0541538 L8.30215385,39.564 Z M18.6618462,42.3332308 L6.91753846,42.3332308 C6.15230769,42.3332308 5.53292308,41.7129231 5.53292308,40.9486154 L5.53292308,29.6695385 C5.53292308,28.9052308 6.15230769,28.2849231 6.91753846,28.2849231 L18.6618462,28.2849231 C19.4261538,28.2849231 20.0464615,28.9052308 20.0464615,29.6695385 L20.0464615,40.9486154 C20.0464615,41.7129231 19.4261538,42.3332308 18.6618462,42.3332308 L18.6618462,42.3332308 Z" id="Fill-11" fill="#FEAA09"></path>
                <path d="M40.1984308,41.7308308 L45.0445846,43.4929846 L45.0445846,27.1249846 L40.1984308,28.8871385 L40.1984308,41.7308308 Z M46.4292,46.8548308 C46.2695077,46.8548308 46.1098154,46.8271385 45.9556615,46.7717538 L38.3402769,44.0025231 C37.7938154,43.8031385 37.4292,43.2834462 37.4292,42.7009846 L37.4292,27.9169846 C37.4292,27.3345231 37.7938154,26.8148308 38.3402769,26.6154462 L45.9556615,23.8462154 C46.3812,23.6929846 46.8538154,23.7548308 47.2230462,24.0142154 C47.5932,24.2726769 47.8138154,24.6963692 47.8138154,25.1477538 L47.8138154,45.4702154 C47.8138154,45.9216 47.5932,46.3452923 47.2230462,46.6037538 C46.9876615,46.7689846 46.7098154,46.8548308 46.4292,46.8548308 L46.4292,46.8548308 Z" id="Fill-12" fill="#FFFFFF"></path>
                <path d="M9.60489231,11.0799692 C6.24212308,11.0799692 3.50612308,13.8159692 3.50612308,17.1778154 C3.50612308,20.5415077 6.24212308,23.2775077 9.60489231,23.2775077 C12.9676615,23.2775077 15.7036615,20.5415077 15.7036615,17.1778154 C15.7036615,13.8159692 12.9676615,11.0799692 9.60489231,11.0799692 M9.60489231,26.0467385 C4.71535385,26.0467385 0.736892308,22.0682769 0.736892308,17.1778154 C0.736892308,12.2892 4.71535385,8.31073846 9.60489231,8.31073846 C14.4944308,8.31073846 18.4728923,12.2892 18.4728923,17.1778154 C18.4728923,22.0682769 14.4944308,26.0467385 9.60489231,26.0467385" id="Fill-28" fill="#FFFFFF"></path>
                <path d="M9.60489231,15.8756308 C8.88673846,15.8756308 8.30150769,16.4599385 8.30150769,17.1780923 C8.30150769,17.8962462 8.88673846,18.4814769 9.60489231,18.4814769 C10.3230462,18.4814769 10.9082769,17.8962462 10.9082769,17.1780923 C10.9082769,16.4599385 10.3230462,15.8756308 9.60489231,15.8756308 M9.60489231,21.2507077 C7.35904615,21.2507077 5.53227692,19.4239385 5.53227692,17.1780923 C5.53227692,14.9331692 7.35904615,13.1064 9.60489231,13.1064 C11.8507385,13.1064 13.6775077,14.9331692 13.6775077,17.1780923 C13.6775077,19.4239385 11.8507385,21.2507077 9.60489231,21.2507077" id="Fill-29" fill="#FEAA09"></path>
                <path d="M28.5946154,3.03286154 C23.0136923,3.03286154 18.4730769,7.57347692 18.4730769,13.1553231 C18.4730769,18.7371692 23.0136923,23.2777846 28.5946154,23.2777846 C34.1755385,23.2777846 38.7170769,18.7371692 38.7170769,13.1553231 C38.7170769,7.57347692 34.1755385,3.03286154 28.5946154,3.03286154 M28.5946154,26.0470154 C21.486,26.0470154 15.7038462,20.2639385 15.7038462,13.1553231 C15.7038462,6.04670769 21.486,0.263630769 28.5946154,0.263630769 C35.7032308,0.263630769 41.4863077,6.04670769 41.4863077,13.1553231 C41.4863077,20.2639385 35.7032308,26.0470154 28.5946154,26.0470154" id="Fill-30" fill="#FFFFFF"></path>
                <path d="M28.5946154,9.75664615 C26.7207692,9.75664615 25.1967692,11.2806462 25.1967692,13.1554154 C25.1967692,15.0292615 26.7207692,16.5532615 28.5946154,16.5532615 C30.4684615,16.5532615 31.9933846,15.0292615 31.9933846,13.1554154 C31.9933846,11.2806462 30.4684615,9.75664615 28.5946154,9.75664615 M28.5946154,19.3224923 C25.194,19.3224923 22.4275385,16.5560308 22.4275385,13.1554154 C22.4275385,9.75387692 25.194,6.98741538 28.5946154,6.98741538 C31.9952308,6.98741538 34.7626154,9.75387692 34.7626154,13.1554154 C34.7626154,16.5560308 31.9952308,19.3224923 28.5946154,19.3224923" id="Fill-31" fill="#FEAA09"></path>
            </g>
        </g>
    </g>
</svg>