<?xml version="1.0" encoding="UTF-8" standalone="no"?>
<svg width="38px" height="38px" viewBox="0 0 38 38" version="1.1" xmlns="http://www.w3.org/2000/svg" xmlns:xlink="http://www.w3.org/1999/xlink">
    <!-- Generator: Sketch 47.1 (45422) - http://www.bohemiancoding.com/sketch -->
    <title>google play</title>
    <desc>Created with Sketch.</desc>
    <defs></defs>
    <g id="Page-1" stroke="none" stroke-width="1" fill="none" fill-rule="evenodd">
        <g id="google-play">
            <g id="Group-45-Copy" transform="translate(8.000000, 7.000000)">
                <path d="M2.26396981,0.0799698113 C2.5253434,0.133766038 2.79106415,0.172075472 3.04718491,0.244528302 C3.72760755,0.4368 4.34753208,0.770083019 4.96519245,1.10418113 C8.60341132,3.07190943 12.2404528,5.04208302 15.8778566,7.01144151 C16.0483925,7.10381887 16.2184755,7.19701132 16.4030491,7.29753962 C15.163834,8.51673962 13.9344,9.72633962 12.7010717,10.9395623 C12.4832604,10.7213887 12.2307623,10.4682566 11.978083,10.2153057 C8.63809811,6.87043019 5.29811321,3.52555472 1.95849057,0.180316981 C1.92760755,0.149433962 1.90188679,0.113479245 1.87372075,0.0799698113 L2.26396981,0.0799698113 Z" id="Fill-1" fill="#66BE68"></path>
                <path d="M11.6624785,12.0630611 C7.95307472,15.7633177 4.23361811,19.4736272 0.494599245,23.2034989 C0.42821434,23.0602234 0.362101132,22.9367819 0.312470943,22.8070008 C0.110780377,22.2801781 0.0493766038,21.7289026 0.0389615094,21.1696574 C0.0374218868,21.0883291 0.0366067925,21.0070913 0.0366067925,20.9258536 C0.0365162264,14.9965857 0.0367879245,9.06731774 0.0361539623,3.13804981 C0.0360633962,2.54257811 0.0736483019,1.95181585 0.265738868,1.3826083 C0.324516226,1.20844981 0.407565283,1.04253283 0.479112453,0.873446038 C4.21541434,4.61183094 7.93478038,8.33328 11.6624785,12.0630611" id="Fill-3" fill="#3BC5F3"></path>
                <path d="M16.4143336,16.7572166 C15.9154053,17.0278279 15.4450958,17.2834958 14.9744242,17.5382581 C11.6444015,19.3410657 8.31465057,21.144326 4.9839034,22.945594 C4.35917887,23.2834958 3.73173736,23.6168694 3.04579019,23.8195562 C2.66966943,23.9306808 2.28612226,23.9885525 1.88645434,23.9788619 C5.52023547,20.3614732 9.14885434,16.7491562 12.7571864,13.1570355 C13.9419713,14.3233449 15.1704996,15.5327638 16.4143336,16.7572166" id="Fill-5" fill="#EF364D"></path>
                <path d="M13.8005525,12.0220075 C14.0842053,11.7436075 14.3708468,11.4674717 14.6517826,11.1857208 C15.6647638,10.1697509 16.676477,9.15269434 17.685926,8.13328302 C17.7574732,8.06101132 17.8068317,8.04860377 17.9003864,8.10058868 C18.8229826,8.61292075 19.7549072,9.10858868 20.6713449,9.63133585 C21.1783336,9.92060377 21.6293525,10.2895698 21.9838279,10.7618717 C22.6046581,11.5890113 22.5999487,12.5029132 21.9680694,13.3224453 C21.5768242,13.8298868 21.0730958,14.2085434 20.5216392,14.5192755 C19.6412468,15.0154868 18.7499864,15.492317 17.8638883,15.978566 C17.8116317,16.0072755 17.7752242,16.0137962 17.7267713,15.9653434 C16.4265147,14.6620075 15.1246279,13.3603925 13.8230128,12.0584151 C13.8202958,12.0556075 13.8186657,12.0515321 13.8005525,12.0220075" id="Fill-7" fill="#FCD206"></path>
            </g>
        </g>
    </g>
</svg>