<?xml version="1.0" encoding="UTF-8"?>
<svg width="20px" height="20px" viewBox="0 0 20 20" version="1.1" xmlns="http://www.w3.org/2000/svg" xmlns:xlink="http://www.w3.org/1999/xlink">
    <!-- Generator: Sketch 46.2 (44496) - http://www.bohemiancoding.com/sketch -->
    <title>Group 15</title>
    <desc>Created with Sketch.</desc>
    <defs></defs>
    <g id="Symbols" stroke="none" stroke-width="1" fill="none" fill-rule="evenodd" opacity="0.504547575">
        <g id="footer" transform="translate(-149.000000, -187.000000)" fill="#FFFFFF">
            <g id="Group-19">
                <g id="Group-18" transform="translate(31.000000, 187.000000)">
                    <g id="Group-15" opacity="0.899999976" transform="translate(118.000000, 0.000000)">
                        <path d="M3.37855238,1.17647059 C2.23150476,1.17647059 1.29855238,2.13686275 1.29855238,3.31764706 L1.29855238,16.6823529 C1.29855238,17.8631373 2.23150476,18.8235294 3.37855238,18.8235294 L16.3610286,18.8235294 C17.5080762,18.8235294 18.4414095,17.8631373 18.4414095,16.6823529 L18.4414095,3.31764706 C18.4414095,2.13686275 17.5080762,1.17647059 16.3610286,1.17647059 L3.37855238,1.17647059 Z M16.3610286,20 L3.37855238,20 C1.60140952,20 0.155695238,18.5117647 0.155695238,16.6823529 L0.155695238,3.31764706 C0.155695238,1.48823529 1.60140952,0 3.37855238,0 L16.3610286,0 C18.1381714,0 19.5842667,1.48823529 19.5842667,3.31764706 L19.5842667,16.6823529 C19.5842667,18.5117647 18.1381714,20 16.3610286,20 L16.3610286,20 Z" id="Fill-1"></path>
                        <path d="M16.5874286,3.83176471 C16.5874286,4.43176471 16.1146667,4.91843137 15.5318095,4.91843137 C14.9489524,4.91843137 14.4761905,4.43176471 14.4761905,3.83176471 C14.4761905,3.23176471 14.9489524,2.74509804 15.5318095,2.74509804 C16.1146667,2.74509804 16.5874286,3.23176471 16.5874286,3.83176471" id="Fill-4"></path>
                        <path d="M9.59504762,5.88235294 C7.4552381,5.88235294 5.71428571,7.67411765 5.71428571,9.8772549 C5.71428571,12.08 7.4552381,13.8717647 9.59504762,13.8717647 C11.7348571,13.8717647 13.4758095,12.08 13.4758095,9.8772549 C13.4758095,7.67411765 11.7348571,5.88235294 9.59504762,5.88235294 M9.59504762,15.0482353 C6.82514286,15.0482353 4.57142857,12.7286275 4.57142857,9.8772549 C4.57142857,7.0254902 6.82514286,4.70588235 9.59504762,4.70588235 C12.3649524,4.70588235 14.6186667,7.0254902 14.6186667,9.8772549 C14.6186667,12.7286275 12.3649524,15.0482353 9.59504762,15.0482353" id="Fill-6"></path>
                    </g>
                </g>
            </g>
        </g>
    </g>
</svg>