<?xml version="1.0" encoding="UTF-8" standalone="no"?>
<svg width="38px" height="38px" viewBox="0 0 38 38" version="1.1" xmlns="http://www.w3.org/2000/svg" xmlns:xlink="http://www.w3.org/1999/xlink">
    <!-- Generator: Sketch 47.1 (45422) - http://www.bohemiancoding.com/sketch -->
    <title>ios</title>
    <desc>Created with Sketch.</desc>
    <defs>
        <polygon id="path-1" points="20.0755111 18.2222222 0.00655639156 18.2222222 0.00655639156 0.042717345 20.0755111 0.042717345 20.0755111 18.2222222"></polygon>
    </defs>
    <g id="Page-1" stroke="none" stroke-width="1" fill="none" fill-rule="evenodd">
        <g id="ios">
            <g id="Group-49-Copy" transform="translate(9.000000, 7.000000)">
                <g id="Group-11" transform="translate(0.000000, 5.690667)">
                    <mask id="mask-2" fill="white">
                        <use xlink:href="#path-1"></use>
                    </mask>
                    <g id="Clip-10"></g>
                    <path d="M19.4459556,2.4179 C19.2929556,2.51967778 19.1561778,2.6069 19.0232889,2.69967778 C18.5106222,3.05778889 18.0571778,3.47778889 17.6877333,3.98478889 C17.2418444,4.59656667 16.9614,5.27801111 16.8451778,6.02478889 C16.7122889,6.87823333 16.7556222,7.72323333 17.0062889,8.55245556 C17.2584,9.38623333 17.7165111,10.0931222 18.3398444,10.6977889 C18.8396222,11.1827889 19.4016222,11.5736778 20.0435111,11.8470111 C20.0526222,11.8509 20.0608444,11.8567889 20.0755111,11.8652333 C20.0034,12.0617889 19.9332889,12.2570111 19.8604,12.4513444 C19.3954,13.6907889 18.7372889,14.8216778 17.9367333,15.8727889 C17.5969556,16.3187889 17.2534,16.7613444 16.8465111,17.1495667 C16.4870667,17.4925667 16.0948444,17.7876778 15.6307333,17.9784556 C15.1076222,18.1933444 14.5696222,18.2430111 14.0140667,18.1433444 C13.5094,18.0529 13.0297333,17.8845667 12.5561778,17.6940111 C12.0620667,17.4951222 11.5524,17.3519 11.0219556,17.2900111 C10.6242889,17.2435667 10.2279556,17.2576778 9.83228889,17.3155667 C9.24328889,17.4017889 8.68762222,17.5982333 8.1374,17.8167889 C7.73673333,17.9759 7.32506667,18.0996778 6.89962222,18.1777889 C6.26528889,18.2942333 5.67495556,18.1799 5.12062222,17.8585667 C4.63406667,17.5764556 4.2214,17.2043444 3.84973333,16.7881222 C2.42828889,15.1964556 1.35895556,13.3995667 0.703177778,11.3626778 C0.458511111,10.6027889 0.263066667,9.83156667 0.144288889,9.0419 C0.0200666667,8.21545556 -0.0261555556,7.38478889 0.0305111111,6.55023333 C0.100844444,5.51656667 0.326844444,4.5219 0.790733333,3.58934444 C1.24373333,2.67834444 1.85506667,1.8959 2.6774,1.28745556 C3.4694,0.701566667 4.34762222,0.318677778 5.32473333,0.171566667 C5.65473333,0.1219 5.98606667,0.0910111111 6.3204,0.108455556 C6.70928889,0.128677778 7.09006667,0.202455556 7.45973333,0.318122222 C7.93173333,0.4659 8.39573333,0.639233333 8.86606667,0.792566667 C9.22951111,0.911122222 9.59706667,1.0169 9.9634,1.12634444 C10.1654,1.18678889 10.3648444,1.15578889 10.5589556,1.09145556 C11.1172889,0.906233333 11.6757333,0.720677778 12.2315111,0.527788889 C12.7571778,0.345344444 13.2889556,0.188455556 13.8396222,0.102122222 C14.2741778,0.0340111111 14.7098444,0.0242333333 15.1472889,0.0740111111 C15.6697333,0.133566667 16.1835111,0.232455556 16.6830667,0.3989 C17.5335111,0.682122222 18.2825111,1.13001111 18.9011778,1.78256667 C19.0911778,1.98301111 19.2616222,2.20178889 19.4459556,2.4179" id="Fill-9" fill="#E6E7E8" mask="url(#mask-2)"></path>
                </g>
                <path d="M10.0706667,5.73378889 C10.0234444,5.36178889 10.0354444,5.01356667 10.0846667,4.66556667 C10.2846667,3.25134444 11.2483333,1.76867778 12.4846667,0.987011111 C13.1255556,0.581788889 13.809,0.282011111 14.558,0.144677778 C14.711,0.116566667 14.8667778,0.103677778 15.0325556,0.0823444444 C15.04,0.182011111 15.0493333,0.272011111 15.053,0.362233333 C15.0982222,1.49056667 14.7645556,2.50456667 14.1205556,3.4219 C13.6293333,4.12156667 13.0346667,4.7159 12.3002222,5.16167778 C11.8155556,5.45578889 11.294,5.6509 10.7278889,5.70845556 C10.5115556,5.73045556 10.2924444,5.72601111 10.0706667,5.73378889" id="Fill-12" fill="#E6E7E8"></path>
            </g>
        </g>
    </g>
</svg>