<?xml version="1.0" encoding="UTF-8" standalone="no"?>
<svg  viewBox="0 0 335 335" version="1.1" xmlns="http://www.w3.org/2000/svg" xmlns:xlink="http://www.w3.org/1999/xlink">
    <!-- Generator: Sketch 47.1 (45422) - http://www.bohemiancoding.com/sketch -->
    <title>lenz logo copy 3</title>
    <desc>Created with Sketch.</desc>
    <defs></defs>
    <g id="Page-1" stroke="none" stroke-width="1" fill="none" fill-rule="evenodd">
        <g id="lenz-logo-copy-3">
            <g id="Group" transform="translate(3.000000, 3.000000)">
                <path d="M245.946094,328.184723 L114.28402,328.184723 C51.882438,328.184723 0.826513905,277.12805 0.826513905,214.725242 L0.826513905,83.0615445 C0.826513905,37.8385022 37.8264444,0.837718489 83.0488227,0.837718489 L203.152293,0.837718489 C271.911262,0.837718489 328.168403,57.0959952 328.168403,125.855664 L328.168403,245.961207 C328.168403,291.18394 291.168472,328.184723 245.946094,328.184723" id="Fill-8" fill="#C4161C"></path>
                <path d="M65.5152981,72.8025984 L65.5152981,34.2441855 C65.5152981,33.9032187 65.7942668,33.6242459 66.1352286,33.6242459 L195.218702,33.6242459 C252.000924,33.6242459 298.458824,80.0828278 298.458824,136.865883 L298.458824,259.845777 C298.458824,260.186744 298.179855,260.465717 297.838893,260.465717 L262.577651,260.465717 L262.577651,295.464126 L130.820727,295.464126 C75.1680185,295.464126 29.6341251,254.109507 29.6341251,198.455981 L29.6341251,72.8025984 L65.5152981,72.8025984 Z M65.5152981,72.8025984 L65.5152981,187.681711 C65.5152981,227.713069 98.2674649,260.465717 138.298236,260.465717 L262.577651,260.465717 L262.577651,154.084736 C262.577651,109.379343 226.001133,72.8025984 181.296706,72.8025984 L65.5152981,72.8025984 Z" id="Combined-Shape" fill="#FFB1B1"></path>
                <path d="M65.5152981,72.8025984 L181.296706,72.8025984 C226.001133,72.8025984 262.577651,109.379343 262.577651,154.084736 L262.577651,260.465717 L138.298236,260.465717 C98.2674649,260.465717 65.5152981,227.713069 65.5152981,187.681711 L65.5152981,72.8025984 Z" id="Combined-Shape" fill="#FED484"></path>
                <path d="M65.5152981,72.8025984 L29.6341251,72.8025984 L29.6341251,198.455981 C29.6341251,254.109507 75.1680185,295.464126 130.820727,295.464126 L262.577651,295.464126 L262.577651,260.465717 L138.298236,260.465717 C98.2674649,260.465717 65.5152981,227.713069 65.5152981,187.681711 L65.5152981,72.8025984 Z" id="Combined-Shape" fill="#FEAA0A"></path>
                <path d="M242.063934,241.116101 L153.847208,241.116101 C116.55777,241.116101 86.0482013,212.570673 86.0482013,175.280687 L86.0482013,91.1682153 C86.0482013,90.8272486 86.32717,90.5482758 86.6681318,90.5482758 L172.634511,90.5482758 C211.16164,90.5482758 242.683865,122.070963 242.683865,160.598658 L242.683865,240.496161 C242.683865,240.837128 242.404896,241.116101 242.063934,241.116101" id="Fill-14" fill="#FFFFFF"></path>
                <path d="M220.967514,164.891709 C220.967514,196.147202 195.630336,221.484753 164.375301,221.484753 C133.120266,221.484753 107.783088,196.147202 107.783088,164.891709 C107.783088,133.636215 133.120266,108.298665 164.375301,108.298665 C195.630336,108.298665 220.967514,133.636215 220.967514,164.891709" id="Fill-16" fill="#232E41"></path>
                <path d="M195.137057,164.422043 C195.137057,181.670931 181.154215,195.653979 163.90558,195.653979 C146.657254,195.653979 132.674412,181.670931 132.674412,164.422043 C132.674412,147.173154 146.657254,133.190107 163.90558,133.190107 C181.154215,133.190107 195.137057,147.173154 195.137057,164.422043" id="Fill-18" fill="#00152C"></path>
                <path d="M166.488768,187.200111 C166.488768,195.500172 159.760353,202.228996 151.460103,202.228996 C143.160164,202.228996 136.431439,195.500172 136.431439,187.200111 C136.431439,178.900049 143.160164,172.171225 151.460103,172.171225 C159.760353,172.171225 166.488768,178.900049 166.488768,187.200111" id="Fill-20" fill="#FFFFFF"></path>
                <path d="M183.395946,135.303667 C183.395946,139.58342 179.926505,143.052911 175.646815,143.052911 C171.367125,143.052911 167.897684,139.58342 167.897684,135.303667 C167.897684,131.023914 171.367125,127.554422 175.646815,127.554422 C179.926505,127.554422 183.395946,131.023914 183.395946,135.303667" id="Fill-22" fill="#FFFFFF"></path>
            </g>
        </g>
    </g>
</svg>