<?xml version="1.0" encoding="UTF-8" standalone="no"?>
<svg width="48px" height="48px" viewBox="0 0 48 48" version="1.1" xmlns="http://www.w3.org/2000/svg" xmlns:xlink="http://www.w3.org/1999/xlink">
    <!-- Generator: Sketch 43 (38999) - http://www.bohemiancoding.com/sketch -->
    <title>live</title>
    <desc>Created with Sketch.</desc>
    <defs></defs>
    <g id="Page-1" stroke="none" stroke-width="1" fill="none" fill-rule="evenodd">
        <g id="live">
            <g id="Group-36">
                <path d="M5.45326154,17.7561231 C4.04003077,17.7561231 2.8908,18.9053538 2.8908,20.3185846 L2.8908,42.0081231 C2.8908,43.4222769 4.04003077,44.5715077 5.45326154,44.5715077 L41.8668,44.5715077 C43.2800308,44.5715077 44.4292615,43.4222769 44.4292615,42.0081231 L44.4292615,20.3185846 C44.4292615,18.9053538 43.2800308,17.7561231 41.8668,17.7561231 L5.45326154,17.7561231 Z M41.8668,47.3407385 L5.45326154,47.3407385 C2.51326154,47.3407385 0.121569231,44.9490462 0.121569231,42.0081231 L0.121569231,20.3185846 C0.121569231,17.3785846 2.51326154,14.9868923 5.45326154,14.9868923 L41.8668,14.9868923 C44.8068,14.9868923 47.1984923,17.3785846 47.1984923,20.3185846 L47.1984923,42.0081231 C47.1984923,44.9490462 44.8068,47.3407385 41.8668,47.3407385 L41.8668,47.3407385 Z" id="Fill-21" fill="#FFFFFF"></path>
                <path d="M20.1215077,13.9177846 C19.7753538,13.9177846 19.4292,13.7885538 19.1615077,13.5310154 L7.85381538,2.64609231 C7.30273846,2.11532308 7.28612308,1.23932308 7.81596923,0.688246154 C8.34673846,0.137169231 9.22458462,0.121476923 9.77381538,0.6504 L21.0815077,11.5353231 C21.6325846,12.0660923 21.6492,12.9420923 21.1193538,13.4931692 C20.8470462,13.7756308 20.4842769,13.9177846 20.1215077,13.9177846" id="Fill-22" fill="#FEAA09"></path>
                <path d="M25.4305846,13.9177846 C24.9358154,13.9177846 24.4567385,13.6519385 24.2075077,13.1857846 C23.8475077,12.5110154 24.1022769,11.6719385 24.7770462,11.3119385 L45.1613538,0.427015385 C45.8370462,0.0651692308 46.6752,0.321784615 47.0352,0.996553846 C47.3952,1.6704 47.1413538,2.50947692 46.4665846,2.86947692 L26.0813538,13.7544 C25.8736615,13.8651692 25.6502769,13.9177846 25.4305846,13.9177846" id="Fill-23" fill="#FEAA09"></path>
                <path d="M13.3278462,21.5655692 C9.86353846,21.5655692 7.04446154,24.3846462 7.04446154,27.8489538 L7.04446154,34.4784923 C7.04446154,37.9437231 9.86353846,40.7628 13.3278462,40.7628 L24.606,40.7628 C28.0703077,40.7628 30.8884615,37.9437231 30.8884615,34.4784923 L30.8884615,27.8489538 C30.8884615,24.3846462 28.0703077,21.5655692 24.606,21.5655692 L13.3278462,21.5655692 Z M24.606,43.5320308 L13.3278462,43.5320308 C8.33676923,43.5320308 4.27523077,39.4704923 4.27523077,34.4784923 L4.27523077,27.8489538 C4.27523077,22.8569538 8.33676923,18.7963385 13.3278462,18.7963385 L24.606,18.7963385 C29.5970769,18.7963385 33.6576923,22.8569538 33.6576923,27.8489538 L33.6576923,34.4784923 C33.6576923,39.4704923 29.5970769,43.5320308 24.606,43.5320308 L24.606,43.5320308 Z" id="Fill-24" fill="#FFFFFF"></path>
                <path d="M40.7370462,26.8020923 L37.6216615,26.8020923 C36.8564308,26.8020923 36.2370462,26.1817846 36.2370462,25.4174769 C36.2370462,24.6531692 36.8564308,24.0328615 37.6216615,24.0328615 L40.7370462,24.0328615 C41.5022769,24.0328615 42.1216615,24.6531692 42.1216615,25.4174769 C42.1216615,26.1817846 41.5022769,26.8020923 40.7370462,26.8020923" id="Fill-25" fill="#FEAA09"></path>
                <path d="M40.7370462,32.5487077 L37.6216615,32.5487077 C36.8564308,32.5487077 36.2370462,31.9284 36.2370462,31.1640923 C36.2370462,30.3997846 36.8564308,29.7794769 37.6216615,29.7794769 L40.7370462,29.7794769 C41.5022769,29.7794769 42.1216615,30.3997846 42.1216615,31.1640923 C42.1216615,31.9284 41.5022769,32.5487077 40.7370462,32.5487077" id="Fill-26" fill="#FEAA09"></path>
                <path d="M40.7370462,38.2945846 L37.6216615,38.2945846 C36.8564308,38.2945846 36.2370462,37.6742769 36.2370462,36.9099692 C36.2370462,36.1456615 36.8564308,35.5253538 37.6216615,35.5253538 L40.7370462,35.5253538 C41.5022769,35.5253538 42.1216615,36.1456615 42.1216615,36.9099692 C42.1216615,37.6742769 41.5022769,38.2945846 40.7370462,38.2945846" id="Fill-27" fill="#FEAA09"></path>
            </g>
        </g>
    </g>
</svg>