<?xml version="1.0" encoding="UTF-8" standalone="no"?>
<svg width="38px" height="38px" viewBox="0 0 38 38" version="1.1" xmlns="http://www.w3.org/2000/svg" xmlns:xlink="http://www.w3.org/1999/xlink">
    <!-- Generator: Sketch 47.1 (45422) - http://www.bohemiancoding.com/sketch -->
    <title>maiket</title>
    <desc>Created with Sketch.</desc>
    <defs>
        <polygon id="path-1" points="23.9096179 0.0722580645 0 0.0722580645 0 8.21938848 0 16.3665189 23.9096179 16.3665189 23.9096179 0.0722580645"></polygon>
    </defs>
    <g id="Page-1" stroke="none" stroke-width="1" fill="none" fill-rule="evenodd">
        <g id="maiket">
            <g id="Group-50-Copy" transform="translate(7.000000, 9.000000)">
                <g id="Group-26" transform="translate(0.000000, 0.019908)">
                    <mask id="mask-2" fill="white">
                        <use xlink:href="#path-1"></use>
                    </mask>
                    <g id="Clip-25"></g>
                    <path d="M17.5843019,0.0722211982 C17.6601962,0.0859539171 17.7356377,0.103834101 17.812166,0.112774194 C19.5714113,0.318488479 21.0389434,1.09848848 22.2118642,2.44466359 C23.0423547,3.39765899 23.5623849,4.51000922 23.7946868,5.76070046 C23.8707623,6.17028571 23.9091623,6.58475576 23.9092528,7.00208295 C23.9096151,9.54927189 23.9098868,12.0963687 23.9091623,14.6435576 C23.9088906,15.4509309 23.3673962,16.1500092 22.5940528,16.3214378 C21.4451321,16.5762765 20.4963623,15.7049401 20.4967245,14.6383041 C20.4975396,12.1390415 20.4967245,9.63987097 20.4969962,7.14060829 C20.4970868,6.27848848 20.2591698,5.49867281 19.7118792,4.83129954 C19.1453887,4.14060829 18.4227623,3.72724424 17.5440906,3.60733641 C15.9019472,3.38328111 14.3414038,4.40189862 13.8551547,6.01314286 C13.7535396,6.34982488 13.7073509,6.69461751 13.7075321,7.04724424 C13.7089811,9.15581567 13.7086189,11.2642949 13.7080755,13.3727742 C13.7078943,14.0424516 13.4481509,14.579318 12.8821132,14.9305622 C11.8664151,15.5607005 10.4685283,15.0049401 10.264483,13.6888111 C10.2470943,13.576553 10.2454642,13.460977 10.2454642,13.3469677 C10.2443774,11.2790415 10.2441057,9.21111521 10.2450113,7.14309677 C10.2451925,6.70512442 10.1983698,6.27415668 10.0418717,5.86401843 C9.56377358,4.61139171 8.67477736,3.83848848 7.37316226,3.62070046 C5.58276226,3.32116129 3.9117283,4.50945622 3.53261887,6.32097696 C3.47583396,6.59231336 3.45672453,6.87636866 3.45609057,7.15470968 C3.45038491,9.63176037 3.45328302,12.1089032 3.45246792,14.5859539 C3.45219623,15.334341 3.03233208,15.9821751 2.37645283,16.2403318 C1.35749434,16.6413456 0.24090566,16.0541567 0.0249962264,14.938212 C0.0204679245,14.9148018 0.00851320755,14.8929585 0,14.8703779 C0,12.0906544 0,9.31093088 0,6.53120737 C0.00787924528,6.50503226 0.0190188679,6.47931797 0.0230943396,6.4524977 C0.0708226415,6.1403318 0.101071698,5.82429493 0.167184906,5.51618433 C0.41669434,4.35351152 0.929660377,3.32134562 1.70744151,2.43295853 C2.87954717,1.09434101 4.34336604,0.317751152 6.09681509,0.112866359 C6.17343396,0.103926267 6.2490566,0.0859539171 6.32513208,0.0722211982 L7.25977358,0.0722211982 C7.28277736,0.0788571429 7.30541887,0.0881658986 7.32887547,0.0916682028 C7.65781132,0.140331797 7.9917283,0.166322581 8.31513962,0.239963134 C9.71954717,0.55959447 10.9064151,1.2684424 11.879366,2.3476129 C11.9030943,2.37397235 11.9174943,2.40917972 11.9385057,2.4441106 C11.9880453,2.39120737 12.0131321,2.36503226 12.0375849,2.33821198 C13.2113208,1.05480184 14.6500528,0.304940092 16.365283,0.111299539 C16.4532226,0.101345622 16.5404377,0.0854009217 16.6279245,0.0722211982 L17.5843019,0.0722211982 Z" id="Fill-24" fill="#00AEFE" mask="url(#mask-2)"></path>
                </g>
                <path d="M11.8365192,19.9345161 C10.9926249,19.9302765 10.0293645,19.7676037 9.11944755,19.3396774 C8.21433057,18.9139631 7.48174189,18.2786636 6.91525132,17.445576 C6.86371925,17.3697235 6.83002868,17.2734101 6.81553811,17.1820737 C6.80666264,17.1267742 6.83645887,17.0473272 6.87657962,17.0086175 C6.89885887,16.9871429 6.98208906,17.0190323 7.03099472,17.0420737 C7.07546264,17.0630876 7.11485887,17.1005991 7.14936453,17.1376498 C7.64639094,17.6707373 8.26033811,18.0147926 8.92554566,18.2745161 C9.5873117,18.5328571 10.27344,18.687788 10.9775004,18.7664055 C12.3217721,18.9165438 13.6348891,18.7804147 14.9113268,18.3208756 C15.5612287,18.0869585 16.1645796,17.7664055 16.6717494,17.2802304 C16.7349645,17.2196774 16.7949192,17.1554378 16.8592211,17.0960829 C16.8910098,17.0665899 16.9270551,17.0401382 16.9649117,17.0194931 C17.0715079,16.9613364 17.1387079,17.0001382 17.1490325,17.1248387 C17.158723,17.2404147 17.1193268,17.3431797 17.0563834,17.4357143 C16.7598702,17.8713825 16.4129117,18.2605069 16.0097117,18.5965438 C15.2453343,19.2335023 14.3676589,19.6170046 13.4014098,19.8024424 C12.9340891,19.8920276 12.4627834,19.9340553 11.8365192,19.9345161" id="Fill-27" fill="#02AFFE"></path>
            </g>
        </g>
    </g>
</svg>