<?xml version="1.0" encoding="UTF-8" standalone="no"?>
<svg width="48px" height="48px" viewBox="0 0 48 48" version="1.1" xmlns="http://www.w3.org/2000/svg" xmlns:xlink="http://www.w3.org/1999/xlink">
    <!-- Generator: Sketch 43 (38999) - http://www.bohemiancoding.com/sketch -->
    <title>aod</title>
    <desc>Created with Sketch.</desc>
    <defs></defs>
    <g id="Page-1" stroke="none" stroke-width="1" fill="none" fill-rule="evenodd">
        <g id="aod">
            <g id="Group-32">
                <path d="M47.1215077,32.3793231 L44.3522769,32.3793231 L44.3522769,23.8020923 C44.3522769,12.3504 35.0356615,3.03286154 23.5830462,3.03286154 C12.1304308,3.03286154 2.81381538,12.3504 2.81381538,23.8020923 L2.81381538,32.3793231 L0.0445846154,32.3793231 L0.0445846154,23.8020923 C0.0445846154,10.8227077 10.6036615,0.263630769 23.5830462,0.263630769 C36.5624308,0.263630769 47.1215077,10.8227077 47.1215077,23.8020923 L47.1215077,32.3793231 Z" id="Fill-7" fill="#FFFFFF"></path>
                <path d="M8.23689231,25.8879692 C5.14458462,26.5285846 2.81381538,29.2747385 2.81381538,32.5544308 L2.81381538,38.0633538 C2.81381538,41.3430462 5.14458462,44.0892 8.23689231,44.7298154 L8.23689231,25.8879692 Z M9.62150769,47.6402769 C4.34058462,47.6402769 0.0445846154,43.3442769 0.0445846154,38.0633538 L0.0445846154,32.5544308 C0.0445846154,27.2735077 4.34058462,22.9775077 9.62150769,22.9775077 C10.3867385,22.9775077 11.0061231,23.5978154 11.0061231,24.3621231 L11.0061231,46.2556615 C11.0061231,47.0208923 10.3867385,47.6402769 9.62150769,47.6402769 L9.62150769,47.6402769 Z" id="Fill-35" fill="#FFFFFF"></path>
                <path d="M38.9292,25.8879692 L38.9292,44.7298154 C42.0215077,44.0892 44.3522769,41.3430462 44.3522769,38.0633538 L44.3522769,32.5544308 C44.3522769,29.2747385 42.0215077,26.5285846 38.9292,25.8879692 M37.5445846,47.6402769 C36.7793538,47.6402769 36.1599692,47.0208923 36.1599692,46.2556615 L36.1599692,24.3621231 C36.1599692,23.5978154 36.7793538,22.9775077 37.5445846,22.9775077 C42.8255077,22.9775077 47.1215077,27.2735077 47.1215077,32.5544308 L47.1215077,38.0633538 C47.1215077,43.3442769 42.8255077,47.6402769 37.5445846,47.6402769" id="Fill-36" fill="#FFFFFF"></path>
                <path d="M26.1860308,44.9697231 C25.4208,44.9697231 24.8014154,44.3494154 24.8014154,43.5851077 L24.8014154,27.0324923 C24.8014154,26.2681846 25.4208,25.6478769 26.1860308,25.6478769 C26.9512615,25.6478769 27.5706462,26.2681846 27.5706462,27.0324923 L27.5706462,43.5851077 C27.5706462,44.3494154 26.9512615,44.9697231 26.1860308,44.9697231" id="Fill-37" fill="#FEAA09"></path>
                <path d="M20.9806154,42.5367692 C20.2153846,42.5367692 19.596,41.9164615 19.596,41.1521538 L19.596,29.466 C19.596,28.7016923 20.2153846,28.0813846 20.9806154,28.0813846 C21.7458462,28.0813846 22.3652308,28.7016923 22.3652308,29.466 L22.3652308,41.1521538 C22.3652308,41.9164615 21.7458462,42.5367692 20.9806154,42.5367692" id="Fill-38" fill="#FEAA09"></path>
                <path d="M31.3908923,42.0463385 C30.6256615,42.0463385 30.0062769,41.4260308 30.0062769,40.6617231 L30.0062769,29.9558769 C30.0062769,29.1915692 30.6256615,28.5712615 31.3908923,28.5712615 C32.1561231,28.5712615 32.7755077,29.1915692 32.7755077,29.9558769 L32.7755077,40.6617231 C32.7755077,41.4260308 32.1561231,42.0463385 31.3908923,42.0463385" id="Fill-39" fill="#FEAA09"></path>
                <path d="M15.7756615,39.6232615 C15.0104308,39.6232615 14.3910462,39.0029538 14.3910462,38.2386462 L14.3910462,32.3789538 C14.3910462,31.6146462 15.0104308,30.9943385 15.7756615,30.9943385 C16.5408923,30.9943385 17.1602769,31.6146462 17.1602769,32.3789538 L17.1602769,38.2386462 C17.1602769,39.0029538 16.5408923,39.6232615 15.7756615,39.6232615" id="Fill-40" fill="#FEAA09"></path>
            </g>
        </g>
    </g>
</svg>