<?xml version="1.0" encoding="UTF-8" standalone="no"?>
<svg width="48px" height="48px" viewBox="0 0 48 48" version="1.1" xmlns="http://www.w3.org/2000/svg" xmlns:xlink="http://www.w3.org/1999/xlink">
    <!-- Generator: Sketch 43 (38999) - http://www.bohemiancoding.com/sketch -->
    <title>profile</title>
    <desc>Created with Sketch.</desc>
    <defs></defs>
    <g id="Page-1" stroke="none" stroke-width="1" fill="none" fill-rule="evenodd">
        <g id="profile">
            <g id="Group-33">
                <path d="M23.5830462,47.2764923 C22.8178154,47.2764923 22.1984308,46.6561846 22.1984308,45.8918769 L22.1984308,28.9404923 C22.1984308,28.1761846 22.8178154,27.5558769 23.5830462,27.5558769 C24.3482769,27.5558769 24.9676615,28.1761846 24.9676615,28.9404923 L24.9676615,45.8918769 C24.9676615,46.6561846 24.3482769,47.2764923 23.5830462,47.2764923" id="Fill-32" fill="#FEAA09"></path>
                <path d="M34.5081231,32.5487077 L30.8158154,32.5487077 C30.0505846,32.5487077 29.4312,31.9284 29.4312,31.1640923 C29.4312,30.3997846 30.0505846,29.7794769 30.8158154,29.7794769 L34.5081231,29.7794769 C35.2733538,29.7794769 35.8927385,30.3997846 35.8927385,31.1640923 C35.8927385,31.9284 35.2733538,32.5487077 34.5081231,32.5487077" id="Fill-33" fill="#FEAA09"></path>
                <path d="M34.5081231,37.3408615 L30.8158154,37.3408615 C30.0505846,37.3408615 29.4312,36.7205538 29.4312,35.9562462 C29.4312,35.1919385 30.0505846,34.5716308 30.8158154,34.5716308 L34.5081231,34.5716308 C35.2733538,34.5716308 35.8927385,35.1919385 35.8927385,35.9562462 C35.8927385,36.7205538 35.2733538,37.3408615 34.5081231,37.3408615" id="Fill-34" fill="#FEAA09"></path>
                <path d="M23.5830462,3.03286154 C18.3224308,3.03286154 14.0430462,7.31316923 14.0430462,12.5728615 C14.0430462,17.8325538 18.3224308,22.1128615 23.5830462,22.1128615 C28.8436615,22.1128615 33.1230462,17.8325538 33.1230462,12.5728615 C33.1230462,7.31316923 28.8436615,3.03286154 23.5830462,3.03286154 M23.5830462,24.8820923 C16.7956615,24.8820923 11.2738154,19.3593231 11.2738154,12.5728615 C11.2738154,5.78547692 16.7956615,0.263630769 23.5830462,0.263630769 C30.3704308,0.263630769 35.8922769,5.78547692 35.8922769,12.5728615 C35.8922769,19.3593231 30.3704308,24.8820923 23.5830462,24.8820923" id="Fill-148" fill="#FFFFFF"></path>
                <path d="M23.5830462,47.2764923 C12.9215077,47.2764923 0.0445846154,44.2091077 0.0445846154,40.3995692 C0.0445846154,30.9555692 6.74889231,22.7688 16.7273538,20.0263385 L17.4612,22.6968 C8.78150769,25.0820308 2.92366154,32.0872615 2.81473846,40.1715692 C3.94458462,41.3872615 12.1581231,44.5072615 23.5830462,44.5072615 C35.0079692,44.5072615 43.2215077,41.3872615 44.3513538,40.1715692 C44.2424308,32.0872615 38.3845846,25.0820308 29.7058154,22.6968 L30.4396615,20.0263385 C40.4172,22.7688 47.1215077,30.9555692 47.1215077,40.3995692 C47.1215077,44.2091077 34.2445846,47.2764923 23.5830462,47.2764923" id="Fill-149" fill="#FFFFFF"></path>
            </g>
        </g>
    </g>
</svg>