<?xml version="1.0" encoding="UTF-8" standalone="no"?>
<svg width="48px" height="48px" viewBox="0 0 48 48" version="1.1" xmlns="http://www.w3.org/2000/svg" xmlns:xlink="http://www.w3.org/1999/xlink">
    <!-- Generator: Sketch 43 (38999) - http://www.bohemiancoding.com/sketch -->
    <title>search</title>
    <desc>Created with Sketch.</desc>
    <defs></defs>
    <g id="Page-1" stroke="none" stroke-width="1" fill="none" fill-rule="evenodd">
        <g id="search">
            <g id="Group-39">
                <path d="M19.9101231,3.03286154 C10.7799692,3.03286154 3.35289231,10.4608615 3.35289231,19.5900923 C3.35289231,28.7202462 10.7799692,36.1482462 19.9101231,36.1482462 C29.0402769,36.1482462 36.4673538,28.7202462 36.4673538,19.5900923 C36.4673538,10.4608615 29.0402769,3.03286154 19.9101231,3.03286154 M19.9101231,38.9174769 C9.2532,38.9174769 0.583661538,30.2470154 0.583661538,19.5900923 C0.583661538,8.93409231 9.2532,0.263630769 19.9101231,0.263630769 C30.5670462,0.263630769 39.2365846,8.93409231 39.2365846,19.5900923 C39.2365846,30.2470154 30.5670462,38.9174769 19.9101231,38.9174769" id="Fill-16" fill="#FFFFFF"></path>
                <path d="M46.2755077,47.3405538 C45.9210462,47.3405538 45.5665846,47.2057846 45.2961231,46.9353231 L36.0847385,37.7230154 C35.5447385,37.1820923 35.5447385,36.3060923 36.0847385,35.7651692 C36.6256615,35.2242462 37.5025846,35.2242462 38.0435077,35.7651692 L47.2548923,44.9765538 C47.7948923,45.5174769 47.7948923,46.3944 47.2548923,46.9353231 C46.9844308,47.2057846 46.6299692,47.3405538 46.2755077,47.3405538" id="Fill-17" fill="#FEAA09"></path>
            </g>
        </g>
    </g>
</svg>