<?xml version="1.0" encoding="UTF-8" standalone="no"?>
<svg width="38px" height="38px" viewBox="0 0 38 38" version="1.1" xmlns="http://www.w3.org/2000/svg" xmlns:xlink="http://www.w3.org/1999/xlink">
    <!-- Generator: Sketch 47.1 (45422) - http://www.bohemiancoding.com/sketch -->
    <title>sib app</title>
    <desc>Created with Sketch.</desc>
    <defs></defs>
    <g id="Page-1" stroke="none" stroke-width="1" fill="none" fill-rule="evenodd">
        <g id="sib-app" fill="#8549BA">
            <g id="Group-46-Copy" transform="translate(10.000000, 7.000000)">
                <path d="M14.1068108,0.0765621622 C13.8604324,2.22358919 12.7568649,3.74250811 10.7441081,4.54088649 C10.2555676,4.73461622 9.6972973,4.79385946 9.16562162,4.82618378 C8.58875676,4.8611027 8.5,4.72607568 8.62713514,4.1596973 C8.93535135,2.78650811 9.72227027,1.74034595 10.8890811,0.978724324 C11.5632432,0.538724324 12.3058378,0.261427027 13.1099459,0.16012973 C13.2010811,0.14867027 13.2881081,0.105210811 13.3770811,0.0765621622 L14.1068108,0.0765621622 Z" id="Fill-14"></path>
                <path d="M14.4542486,16.943827 C14.9901405,14.7819892 14.6216,12.9072865 13.1991135,11.2952865 C12.4080865,10.3990703 11.4772757,9.65874595 10.4311135,9.07139459 C8.80797838,8.16025946 7.06116757,7.70901622 5.20419459,7.66998919 C5.07597838,7.66728649 4.94765405,7.66966486 4.81414054,7.63301622 C5.61284324,7.12252973 6.48895135,6.83615135 7.4043027,6.67615135 C10.2236541,6.18317838 12.8756541,6.83042162 15.4591135,7.89939459 C15.5612757,7.94166486 15.6672216,8.08252973 15.6897081,8.19398919 C16.2910054,11.1707459 16.1067892,14.0499892 14.5933838,16.7572324 C14.5744649,16.7911784 14.5468973,16.8203676 14.4542486,16.943827" id="Fill-16"></path>
                <path d="M16.4462811,11.2831784 C16.8970919,12.0645838 17.1725514,12.8870703 17.3364432,13.7469622 C17.8028216,16.195827 17.3886595,18.5538811 16.5794703,20.8683676 C16.5037946,21.0848 16.3953622,21.2926919 16.3439027,21.5142054 C16.2207676,22.0454486 15.8951459,22.247827 15.360227,22.3308541 C12.7930919,22.7296649 10.3007676,22.5785297 7.91698378,21.457773 C7.72325405,21.3666378 7.53482162,21.263827 7.35028108,21.1408 C8.42130811,21.3561514 9.47763243,21.3522595 10.5244432,21.0349622 C11.5564432,20.7220973 12.4658486,20.1913946 13.1663892,19.3763676 C14.6454162,17.6553946 15.8255243,15.7664216 16.1867135,13.4713946 C16.2989297,12.7586378 16.3583892,12.0374486 16.4462811,11.2831784" id="Fill-18"></path>
                <path d="M1.08742703,19.1730378 C0.579102703,18.2133622 0.310994595,17.2609297 0.184724324,16.2691459 C-0.153113514,13.6152 0.460832432,11.1175784 1.46699459,8.69001081 C1.50991351,8.58655135 1.63964324,8.47174054 1.7471027,8.44936216 C4.4496973,7.8844973 7.08958919,8.01984865 9.63045405,9.18914595 C9.66385946,9.2044973 9.68915676,9.23736216 9.7456973,9.28557838 C9.2404,9.28557838 8.76494054,9.25671351 8.29402162,9.29087568 C6.72656216,9.40460541 5.41250811,10.0682811 4.34699459,11.2113081 C2.66450811,13.0162811 1.53888649,15.1007135 1.23380541,17.5807135 C1.17283243,18.0760649 1.14148108,18.5750919 1.08742703,19.1730378" id="Fill-20"></path>
                <path d="M2.91499459,13.9380108 C2.53056216,16.1106595 3.08418378,17.9555243 4.58548108,19.5505514 C6.57294054,21.6621189 9.02256216,22.7465514 11.8868865,22.9628757 C11.9941297,22.9709838 12.1012649,22.9836324 12.2076432,22.9995243 C12.2285081,23.0026595 12.2455892,23.0305514 12.2926162,23.0717405 C11.5156432,23.468173 10.7025622,23.6935784 9.86180541,23.8172541 C7.41521081,24.1772541 5.09023784,23.6733622 2.79629189,22.8564973 C2.14472432,22.6243892 1.8456973,22.296173 1.75153514,21.5943351 C1.40753514,19.0320649 1.57964324,16.5579027 2.76072432,14.2124973 C2.80785946,14.1187676 2.86331892,14.0293622 2.91499459,13.9380108" id="Fill-22"></path>
            </g>
        </g>
    </g>
</svg>