<?xml version="1.0" encoding="UTF-8"?>
<svg width="20px" height="19px" viewBox="0 0 20 19" version="1.1" xmlns="http://www.w3.org/2000/svg" xmlns:xlink="http://www.w3.org/1999/xlink">
    <!-- Generator: Sketch 46.2 (44496) - http://www.bohemiancoding.com/sketch -->
    <title>Group 17</title>
    <desc>Created with Sketch.</desc>
    <defs></defs>
    <g id="Symbols" stroke="none" stroke-width="1" fill="none" fill-rule="evenodd" opacity="0.504547575">
        <g id="footer" transform="translate(-107.000000, -188.000000)" fill="#FFFFFF">
            <g id="Group-19">
                <g id="Group-18" transform="translate(31.000000, 187.000000)">
                    <g id="Group-17" opacity="0.899999976" transform="translate(76.000000, 1.333333)">
                        <path d="M10.5968781,13.5322707 C10.7835448,13.5322707 10.9702115,13.59088 11.1286428,13.7089015 L15.3153095,16.8204141 C15.3917801,16.8770162 15.489035,16.890665 15.5788389,16.8557402 C15.6686428,16.8200126 15.7309958,16.7449445 15.7506036,16.6490019 L18.8176624,1.54586209 C18.8384467,1.44429936 18.8027605,1.33912374 18.7251134,1.27128144 L18.7251134,1.27128144 C18.6478585,1.20384058 18.5407997,1.18537463 18.4462899,1.2231094 L1.35452518,7.97241406 C1.24393694,8.01617033 1.1760938,8.11853592 1.17648596,8.23896603 C1.17687812,8.36019901 1.24668204,8.46216316 1.35766243,8.50511657 L5.61962322,10.1329302 L7.26276047,15.5418478 C7.29021145,15.6321703 7.35962322,15.7028227 7.44785851,15.7301202 C7.5360938,15.7578191 7.63138792,15.7369445 7.70276047,15.6779338 L10.0243291,13.7406148 C10.1902115,13.6017187 10.3933487,13.5322707 10.5968781,13.5322707 M15.4780546,18.0797116 C15.1706036,18.0797116 14.8757016,17.9813603 14.6247213,17.7954965 L10.6058977,14.8084284 L8.44628988,16.6108657 C8.07256439,16.9235825 7.57334871,17.0255467 7.10903498,16.8834391 C6.64550557,16.7401273 6.28315263,16.3724141 6.13923106,15.8991237 L4.66746635,11.0550234 L0.945897726,9.63274381 C0.373740863,9.41356101 0.00276047094,8.86881549 1.53729017e-05,8.2445861 C-0.00272972514,7.62115958 0.362368314,7.07360402 0.930995765,6.84920259 L18.0227605,0.0994964966 C18.5192311,-0.0960017113 19.0804075,0.000743808413 19.4862899,0.35320259 C19.8925644,0.706062805 20.0776624,1.25682983 19.9698193,1.79073664 L16.9023683,16.8942779 C16.801584,17.3900485 16.4655056,17.7958979 16.0035448,17.9789517 C15.8345252,18.0455897 15.6576624,18.0797116 15.4780546,18.0797116" id="Fill-8"></path>
                        <path d="M7.92781546,9.71901932 L8.28899193,11.1826466 L8.60389389,10.1276788 C8.63448213,10.0257147 8.69056056,9.93378634 8.76703115,9.86152828 L11.3089919,7.45292613 L7.92781546,9.71901932 Z M8.23526644,14.0247971 L8.22075664,14.0247971 C7.95683507,14.0179727 7.72938409,13.8321089 7.66507036,13.5699727 L6.68467821,9.59778634 C6.62310958,9.34889745 6.72271742,9.08756412 6.93252134,8.94666089 L16.5403645,2.50686161 C16.7964429,2.33544942 17.1376194,2.39365731 17.3262468,2.63973616 C17.5144821,2.88661788 17.486639,3.23987953 17.2623253,3.45263939 L9.68271742,10.635091 L8.79761938,13.5984745 C8.72193311,13.8521806 8.49330566,14.0247971 8.23526644,14.0247971 L8.23526644,14.0247971 Z" id="Fill-10"></path>
                    </g>
                </g>
            </g>
        </g>
    </g>
</svg>