<?xml version="1.0" encoding="UTF-8"?>
<svg width="14px" height="20px" viewBox="0 0 14 20" version="1.1" xmlns="http://www.w3.org/2000/svg" xmlns:xlink="http://www.w3.org/1999/xlink">
    <!-- Generator: Sketch 46.2 (44496) - http://www.bohemiancoding.com/sketch -->
    <title>Fill 12</title>
    <desc>Created with Sketch.</desc>
    <defs></defs>
    <g id="Symbols" stroke="none" stroke-width="1" fill="none" fill-rule="evenodd" opacity="0.504547575">
        <g id="footer" transform="translate(-71.000000, -187.000000)" fill="#FFFFFF">
            <g id="Group-19">
                <g id="Group-18" transform="translate(31.000000, 187.000000)">
                    <path d="M42.4128686,1.17647059 C41.7162007,1.17647059 41.1489851,1.75686275 41.1489851,2.47058824 L41.1489851,12.6133333 C41.1489851,16.0376471 43.8697817,18.8235294 47.2140942,18.8235294 L51.5871314,18.8235294 C52.2841823,18.8235294 52.8510149,18.2431373 52.8510149,17.5294118 C52.8510149,16.8160784 52.2841823,16.2352941 51.5875144,16.2352941 L47.2140942,16.2352941 C45.2635006,16.2352941 43.6767522,14.6105882 43.6767522,12.6133333 L43.6767522,9.96980392 C43.6767522,9.64509804 43.9341249,9.38156863 44.2512447,9.38156863 L51.5875144,9.38156863 C52.2841823,9.38156863 52.8510149,8.80078431 52.8510149,8.08745098 C52.8510149,7.37411765 52.2841823,6.79333333 51.5875144,6.79333333 L44.2512447,6.79333333 C43.9341249,6.79333333 43.6767522,6.52980392 43.6767522,6.20509804 L43.6767522,2.47058824 C43.6767522,1.75686275 43.1099196,1.17647059 42.4128686,1.17647059 M51.5871314,20 L47.2140942,20 C43.2363079,20 40,16.6862745 40,12.6133333 L40,2.47058824 C40,1.10823529 41.0823439,0 42.4128686,0 C43.7433933,0 44.8257373,1.10823529 44.8257373,2.47058824 L44.8257373,5.61686275 L51.5875144,5.61686275 C52.9176561,5.61686275 54,6.72509804 54,8.08745098 C54,9.44980392 52.9176561,10.5580392 51.5875144,10.5580392 L44.8257373,10.5580392 L44.8257373,12.6133333 C44.8257373,13.9619608 45.8973573,15.0588235 47.2140942,15.0588235 L51.5875144,15.0588235 C52.9176561,15.0588235 54,16.167451 54,17.5294118 C54,18.8917647 52.9176561,20 51.5871314,20" id="Fill-12" opacity="0.899999976"></path>
                </g>
            </g>
        </g>
    </g>
</svg>